<svg width="130" height="32" viewBox="0 0 130 32" xmlns="http://www.w3.org/2000/svg"><title>logo</title><g fill="none" fill-rule="evenodd"><path d="M78.316 19.833c10.63 19.331-31.53 8.733-41.743 4.698 0 0 47.688 14.081 41.743-4.698" fill="#1D1D1B"/><path d="M40.029 9.006c-.158 1.94-.328 4.753-.38 9.192h-2.18c.262-3.598.327-6.316.354-7.76h-4.294c-.04.615-.145 2.35-.263 7.76h-2.167c.144-.934.092-1.17.238-3.875a87.2 87.2 0 0 0 .129-5.317h8.563zM43.417 14.835c0 .526.04 1.105.472 1.602.224.263.657.58 1.301.58.578 0 1.063-.277 1.405-.856.276-.47.366-1.048.366-1.522 0-.618-.157-1.155-.457-1.524-.42-.498-.985-.59-1.419-.59-.29 0-.828.013-1.538.261a24.45 24.45 0 0 0-.13 2.05m1.694-3.649c.972 0 2.1.154 2.862.97.578.616.868 1.628.868 2.533 0 .881-.264 1.918-.853 2.642-.606.748-1.393 1.024-2.26 1.024-.355 0-1.549-.067-2.403-1.13a61.585 61.585 0 0 0-.066 1.942c-.026.738-.04 1.157-.052 2.113h-1.943c.091-1.113.158-2.073.235-3.622.106-2.179.158-3.795.197-6.092 1.326-.25 2.378-.38 3.415-.38M53.686 11.188c.327 0 1.42.025 2.048.483.577.42.63.92.63 1.38 0 .774-.079 1.22-.184 3.31-.039.878-.065 1.18-.052 1.838h-1.903c.037-.486.091-1.05.13-1.854.041-.76.027-.55.093-1.705-.315.223-.564.315-.999.445-.407.119-.814.223-1.183.37-.654.26-.865.629-.865.97 0 .368.263.854 1.128.854.447 0 .813-.077 1.144-.198l-.342 1.157a7.596 7.596 0 0 1-1.273.119c-.409 0-1.352-.042-1.89-.54-.369-.341-.566-.943-.566-1.445 0-.367.131-.827.565-1.245.473-.46 1.156-.7 1.758-.868.658-.183.998-.223 1.417-.328.383-.091.686-.212.868-.408a.7.7 0 0 0 .224-.484c0-.252-.118-.776-1.26-.776-1.038 0-2.036.328-2.667.592l.2-1.275c.916-.223 2.084-.392 2.98-.392M60.134 11.357c-.066 1.168-.092 1.445-.156 2.402-.041.564-.067 1.117-.148 2.258.2-.234.672-.801 1.185-1.457l1.364-1.758c.302-.394.865-1.143 1.103-1.445h1.878a61.535 61.535 0 0 0-.222 4.439c-.014.419-.014.852-.014 1.273 0 .38-.014.748-.014 1.13h-2.061c.184-2.26.117-1.828.315-4.663-.801 1.024-1.063 1.367-1.167 1.498l-1.182 1.551c-.434.563-.657.851-1.223 1.613H57.81a94.52 94.52 0 0 0 .34-6.841h1.984zM69.72 11.357c.394 1.405.735 2.402 1.01 3.296.224.72.436 1.484.54 1.874.3-.824.5-1.258.748-1.888.919-2.257.999-2.39 1.313-3.282h2.562a75.13 75.13 0 0 0-.12 2.428c-.052 1.617-.04 2.692-.04 4.413h-1.705c.04-.709.064-1.276.13-3.69.027-.735.027-1.194.027-1.734-.38.92-.552 1.34-.84 2.024a218.238 218.238 0 0 0-1.406 3.4h-1.68c-.381-1.367-.645-2.154-1.066-3.508-.221-.733-.326-1.088-.614-1.955-.068.894-.093 1.232-.133 1.693-.21 2.692-.223 3.101-.236 3.77h-1.641c.119-.776.21-1.457.486-4.636.078-.931.132-1.614.157-2.205h2.509z" fill="#EF7521"/><path d="M83.653 13.432c-.013.55-.04 1.09-.053 1.639-.012.303-.012.606-.026.909a5.823 5.823 0 0 0 1.037-.131c.5-.134.933-.368 1.26-.908.146-.223.409-.736.409-1.562 0-1.022-.408-1.63-.906-1.955-.448-.305-1.117-.433-1.631-.422-.077 1.103-.063 1.603-.09 2.43zm-2.732-2.325c-.657.156-1.103.538-1.391 1.092-.303.575-.328 1.18-.328 1.416 0 1.038.47 1.614.918 1.93.459.317 1.103.448 1.615.435.053-.92.064-1.314.093-2.14.039-1.012.066-1.483.09-2.838-.313 0-.707.04-.997.105zm3.085-2.574a11.94 11.94 0 0 0-.065 1.129c1.786.01 2.837.594 3.455 1.234.59.619.93 1.498.93 2.455 0 .448-.065 2.104-1.521 3.126-.973.684-2.233.842-3.14.842-.025.498-.04.97-.025 1.42h-2.168c.039-.45.053-.922.067-1.42-.882-.026-2.325-.21-3.284-1.064-.618-.54-1.103-1.393-1.103-2.64 0-.787.184-2.088 1.339-2.994.788-.617 1.866-.96 3.323-.96.027-.406.04-.787.027-1.128h2.165zM91.768 11.357c-.065 1.168-.093 1.445-.158 2.402-.039.564-.064 1.117-.144 2.258.197-.234.67-.801 1.182-1.457l1.366-1.758c.303-.394.866-1.143 1.102-1.445h1.88a63.826 63.826 0 0 0-.226 4.439c-.014.419-.014.852-.014 1.273 0 .38-.01.748-.01 1.13h-2.064c.185-2.26.118-1.828.316-4.663-.8 1.024-1.064 1.367-1.169 1.498l-1.18 1.551c-.436.563-.657.851-1.222 1.613h-1.983a95.77 95.77 0 0 0 .341-6.841h1.983zM100.58 11.357c-.04.38-.118 1.234-.17 2.6h3.19c.078-1.144.026-.855.078-2.6h1.997c-.08.825-.147 1.682-.186 2.758-.052 1.155-.078 2.94-.09 4.083h-2.01c.08-.959.08-1.3.17-2.902h-3.202c-.08 1.524-.08 2.219-.08 2.902h-2.009c.144-1.787.158-2.457.223-3.953.065-1.39.092-1.825.081-2.888h2.007zM110.665 11.188c.328 0 1.419.025 2.048.483.579.42.632.92.632 1.38 0 .774-.08 1.22-.187 3.31-.038.878-.064 1.18-.051 1.838h-1.904c.039-.486.092-1.05.132-1.854.04-.76.025-.55.092-1.705-.315.223-.564.315-1 .445-.405.119-.812.223-1.181.37-.656.26-.866.629-.866.97 0 .368.26.854 1.129.854.447 0 .816-.077 1.143-.198l-.34 1.157a7.623 7.623 0 0 1-1.275.119c-.407 0-1.353-.042-1.891-.54-.367-.341-.566-.943-.566-1.445 0-.367.132-.827.566-1.245.472-.46 1.156-.7 1.76-.868.656-.183.998-.223 1.419-.328.379-.091.68-.212.865-.408a.699.699 0 0 0 .223-.484c0-.252-.118-.776-1.26-.776-1.04 0-2.036.328-2.665.592l.196-1.275c.92-.223 2.087-.392 2.98-.392M117.1 11.357a40.79 40.79 0 0 0-.173 2.6h3.191c.08-1.144.027-.855.08-2.6h1.997a43.252 43.252 0 0 0-.185 2.758c-.053 1.155-.078 2.94-.092 4.083h-2.009c.078-.959.078-1.3.17-2.902h-3.202c-.08 1.524-.08 2.219-.08 2.902h-2.009c.146-1.787.157-2.457.222-3.953.067-1.39.095-1.825.08-2.888h2.01zM129.1 12.918c-.471-.184-1.141-.34-1.733-.34-.524 0-1.101.127-1.561.628-.486.541-.564 1.262-.564 1.697 0 .38.052 1.114.564 1.587.342.316.88.474 1.472.474.484 0 1.13-.144 1.613-.33l-.25 1.5a7.294 7.294 0 0 1-1.824.222c-.747 0-1.76-.08-2.535-.8-.471-.447-.97-1.265-.97-2.616 0-1.206.38-2.167.944-2.769.8-.855 1.814-.984 2.666-.984 1.118 0 1.826.181 2.088.26l.09 1.471zM115.183 3.62l-.017.454a13.526 13.526 0 0 0-1.162-.044h-1.706a306.66 306.66 0 0 0-.16 5.054h1.002c.396 0 .805-.026 1.164-.226.46-.26.636-.66.636-1.206 0-.376-.084-.685-.418-.935-.16-.119-.512-.335-1.22-.335-.296 0-.579.032-.84.084l.128-.394c.25-.059.467-.084.767-.084.588 0 1.265.075 1.71.526.342.352.41.78.41 1.138 0 .587-.194 1.154-.839 1.532-.476.278-.944.293-1.362.293h-1.741c.092-1.389.183-3.33.202-5.857h3.446zM116.722 5.26c.688-.176 1.09-.219 1.483-.219.855 0 1.197.21 1.323.312.3.242.333.525.333.843 0 .543-.058.988-.108 2.127-.017.467-.024.752-.024 1.153h-.553c.04-.384.067-.784.1-1.403.017-.386.026-.602.058-1.29-.234.21-.453.301-.753.394-.282.083-.4.098-.745.207-.534.168-.736.278-.792.32-.38.225-.462.544-.462.743a.71.71 0 0 0 .342.611c.2.125.486.176.762.176.46 0 .87-.135.996-.176l-.101.41c-.31.07-.636.1-.987.1-.352 0-.77-.03-1.097-.276-.333-.25-.41-.6-.41-.868 0-.328.127-.594.385-.823.36-.308.955-.466 1.85-.7.284-.077.469-.136.61-.21.278-.15.419-.402.419-.61 0-.203-.141-.436-.36-.555-.208-.116-.501-.132-.744-.132a3.91 3.91 0 0 0-1.59.318l.065-.452zM121.636 5.135c-.067.937-.1 1.315-.118 1.934h2.77c.06-.958.06-1.65.06-1.934h.553a58.651 58.651 0 0 0-.118 2.075 44.905 44.905 0 0 0-.06 2.267h-.55c.033-.47.041-.635.057-1.012.008-.376.016-.543.052-1.012h-2.77a20.38 20.38 0 0 0-.053 1.682v.342h-.552c.061-.795.068-1.163.118-2.274.05-1.224.058-1.516.058-2.068h.553zM127.084 6.682c.704-.761.603-.677.93-1.028.16-.167.284-.294.45-.52h.664l-.687.729c-.704.742-1.104 1.196-1.263 1.369.777.816.852.924 2.075 2.245h-.662a7.127 7.127 0 0 0-.41-.486c-.411-.452-.713-.752-.895-.96l-.71-.8.508-.55zm-.476-1.547a63.003 63.003 0 0 0-.168 4.342h-.552c.043-.567.059-.928.084-1.52.042-.974.066-1.66.084-2.822h.552z" fill="#1D1D1B"/><path d="M61.124 10.252s-1.648-.751-1.072-1.764c.551-.962 3.767.45 4.525.86.336.16-3.078-.714-3.509.106-.248.475.235.842.056.798" fill="#EF7521"/><path d="M6.847 3.267c-.068-.008-.007-.646-.495-1.348C5.5.696 3.816.869 2.617 1.47a6.016 6.016 0 0 1-.645.03c-.784-.035.106.683.244 1.064.186.358.273.874.342 1.268.061.343.373.934.501 1.26.057.148.345.614.343.624.019.029.541.63.54.674-.001.016.112.182-.332.26C.736 7.162.298 9.966.211 10.327c-.311 1.28-.326 2.5.284 4.77 1.96 7.312 9.385 17.033 7.753 13.387-1.14-2.545-5.229-15.012-1.133-15.361 1.561-.132 4.731 1.692 6.15 2.284 7.667 3.295 24.621 9.609 18.442 6.883-2.879-1.267-19.831-9.613-16.713-8.94 1.889.408 10.81 3.859 12.701 4.076 5.129 1.54-8.958-4.221-11.517-5.596-3.909-2.1-4.67-2.86-4.883-4.174-.853-5.112 11.727-4.711 13.312-4.88 1.805-.192.486-.522.754-.548C23.265 1.733 15.82-.268 10.97.03 8.56.273 7.543 1.65 7.057 3.505c-.059.222-.154-.066-.21-.238M4.341 4.866c-.025.23-.419.92-.591.9-.355-.04-1.073-1.802-1.013-2.32.016-.14.947.356 1.069.436 1.022.667.575.58.535.984" fill="#1D1D1B"/></g></svg>