<?xml version="1.0" encoding="utf-8"?>
<!-- Generator: Adobe Illustrator 17.1.0, SVG Export Plug-In . SVG Version: 6.00 Build 0)  -->
<svg version="1.2" baseProfile="tiny" id="Слой_1"
	 xmlns="http://www.w3.org/2000/svg" xmlns:xlink="http://www.w3.org/1999/xlink" x="0px" y="0px" viewBox="0 517 1451.3 417.3"
	 overflow="scroll" xml:space="preserve">
<path fill="#403092" d="M527.4,679.5c-0.5-9.2,0.5-25.6,1.4-34.3c-3.4,1-5.3,1-8.7,1c-6.8,0-10.1-1-15-1.9c-5.3-1-12.1-1.9-23.2-1.9
	c-43.5,0-71,31.4-71,68.1c0,42.5,35.3,69.1,72.9,69.1c35.3,0,42.5-14,47.3-25.6c1.4-3.4,1.4-3.4,2.4-5.8h-6.3
	c-7.2,14-22.2,24.1-43,24.1c-29,0-56.5-24.1-56.5-61.3c0-39.6,26.1-61.3,50.2-61.3c6.3,0,42.5-3.9,43.5,29.9H527.4z M566,762.1
	c0.5-8.2,0.5-12.6,0.5-21.7c0-2.4,0-4.3,0-6.3c0-1.4,0-3.4,0-4.8c0-2.9,0-5.3,0-7.7c-0.5-18.8,3.4-22.7,11.6-22.7h3.9v-4.3h-9.2
	c-2.9,0-4.8,0.5-7.7,0.5c-2.4,0-5.3,0-7.7,0c-3.4,0-4.8-0.5-7.7-0.5h-9.2v4.3h3.9c10.6,0,11.1,6.8,11.1,38.2c0,5.3,0,31.4-1.4,41.5
	l5.8,1c26.1-30.4,38.6-44.4,54.6-67.1l2.4,0.5c-1.9,11.1-1.9,18.8-1.9,30.9c0,17.9,1,29.9-15,28.5v4.8c8.2,0,11.6-0.5,15.5-1
	c3.4,0,7.2,0,10.6,0c4.3,0,7.7,1,15.9,1v-4.8c-16.9,1.4-14.5-8.2-15-29c0-7.7,0-15.9,0-23.7c0-9.7,0-16.9,1-26.1l-5.3-1.4
	c-31.4,45.9-23.7,28-54.6,71L566,762.1z M662.6,723.5c1-5.3,1-7.7,1.4-15.9c2.9-46.4,15-52.6,23.7-52.6c4.8,0,7.7,1.4,13,3.4
	c4.3,1,8.2,1.4,12.6,1.4c11.1,0,18.8-10.1,24.1-18.8h-4.8c-4.3,8.2-7.7,7.7-13,7.7c-4.8,0-8.7-1.9-13-2.9c-3.4-1-6.8-1.4-10.1-1.4
	c-19.3,0-43,22.2-43,73.9c0,52.2,23.7,60.9,38.2,60.9c19.8,0,44.4-18.8,44.4-47.8c0-20.8-13.5-37.7-34.8-37.7
	c-18.8,0-31.9,15-37.2,29.9L662.6,723.5L662.6,723.5z M667,732.7c0-14,9.2-29.9,27-29.9c12.6,0,28.5,11.6,28.5,36.2
	c0,26.6-15.9,33.8-25.6,33.8C680.5,772.8,667,752.5,667,732.7L667,732.7z M823.5,755.4c-5.3,5.8-14,13-27,13
	c-20.8,0-35.7-17.4-35.7-42.5c0-22.2,15-28.5,23.2-28.5c12.6,0,16.9,11.1,18.8,16.9c4.3-4.3,9.2-7.7,14-10.6
	c-6.3-10.6-16.4-11.6-21.7-11.6c-29.9,0-47.3,22.7-47.3,45.4c0,18.8,14,41.5,40.6,41.5c8.7,0,13-3.9,19.8-7.7
	c6.8-4.3,12.6-7.2,15.9-8.7v-7.2H823.5z M828.3,735.1c-1,22.7,14.5,44.4,43.5,44.4c27,0,45.9-21.7,45.9-46.4
	c0-20.3-15.5-41.1-43.5-41.1C846.7,692.1,829.3,711.9,828.3,735.1L828.3,735.1z M843.3,730.3c0-22.7,15-32.4,26.6-32.4
	c18.4,0,32.8,19.8,32.8,44.9c0,16.9-10.6,30.4-26.1,30.4C856.3,773.2,843.3,753,843.3,730.3L843.3,730.3z M955.8,753.4
	c0-7.2,0-12.6,0-19.3c0-4.3,0-8.7,0-12.6c0-8.7-1-22.7,7.7-22.7h5.3V694c-8.7,0-10.1,0.5-16.4,1c-2.4,0-4.8,0-7.2,0
	c-4.8-0.5-8.2-1-17.4-1v4.3h3.4c9.2,0,11.6,5.3,11.6,22.7c0,4.8,0,12.6-0.5,21.7c2.9,27-7.7,29.9-15,29v4.8c10.1,0,10.1-1,18.4-1
	c3.4-0.5,6.8-0.5,10.1,0c8.7,0.5,12.6,1,20.8,1c11.1,0,29.9-1,42.5-1.9l0.5,1.4c-8.7,3.9-15.9,9.7-22.2,21.3
	c-3.9,6.8-6.8,15.9-15.5,15.9c-2.4,0-8.7,0.5-11.6-5.3l-8.2,5.8c4.3,2.4,9.2,3.9,14,3.9c21.7,0,34.8-21.7,39.1-29.5
	c4.8-8.2,6.8-13,15.5-13v-5.3c-20.8,6.3-18.8-7.7-18.8-34.8c0-1.4,0-2.9,0-4.3c0-2.9,0-5.8,0-9.2c-0.5-17.4,1.4-23.2,11.1-23.2h3.9
	V694c-9.2,0-12.1,0.5-17.4,1c-2.4,0-4.8,0-7.2,0c-6.3-0.5-7.2-1-16.4-1v4.8h4.8c7.7,0,8.2,12.6,8.2,22.7c0,4.3,0,8.7,0,13.5
	c0,12.1,0,19.8-1,35.7c-7.7,1-13.5,1-20.8,1c-8.2,0-14-0.5-21.3-1.9L955.8,753.4L955.8,753.4z M1048.1,723.5c1-5.3,1-7.7,1.4-15.9
	c2.9-46.4,15-52.6,23.2-52.6c4.8,0,7.7,1.4,13,3.4c4.3,1,8.2,1.4,12.6,1.4c11.1,0,18.8-10.1,24.1-18.8h-4.8c-3.9,8.2-7.7,7.7-13,7.7
	c-4.8,0-8.7-1.9-13-2.9c-3.4-1-6.8-1.4-10.1-1.4c-19.3,0-43,22.2-43,73.9c0,52.2,23.7,60.9,38.2,60.9c19.8,0,44.4-18.8,44.4-47.8
	c0-20.8-13.5-37.7-34.8-37.7c-18.8,0-31.9,15-37.2,29.9L1048.1,723.5L1048.1,723.5z M1052.4,732.7c0-14,9.7-29.9,27-29.9
	c12.6,0,28.5,11.6,28.5,36.2c0,26.6-15.9,33.8-25.1,33.8C1065.9,772.8,1052.4,752.5,1052.4,732.7L1052.4,732.7z M1215.2,759.7
	c-10.1,11.1-13.5,10.6-14.5,10.6c-4.3,0-4.3-7.2-4.3-11.1c1.9-44.9,2.4-44.4,2.4-48.8c0-14.5-13-18.4-22.7-18.4
	c-13.5,0-47.8,11.1-37.7,31.4l15.9-9.7c-4.8-7.7,1.9-15.9,11.1-15.9c11.6,0,18.8,3.4,18.8,31.4v5.8c-35.7,2.9-51.2,14.5-51.2,29.5
	c0,3.9,3.4,14.5,20.8,14.5c11.1,0,21.7-6.3,29-13.5c1.4,7.7,4.8,13.5,10.6,13.5c4.3,0,9.2-2.9,21.3-13v-6.3H1215.2z M1183.8,740.4
	c1,28-15.5,32.4-23.2,32.4c-9.7,0-12.6-8.2-12.6-15C1148,743.8,1166.4,741.8,1183.8,740.4L1183.8,740.4z M1247,721.6
	c0-18.8,1.4-22.7,11.1-22.7h2.9V694c-8.7,0-11.1,0.5-15.9,1c-2.4,0-5.3,0-8.2,0c-2.4,0-5.3-0.5-7.7-0.5h-9.2v4.3h3.9
	c10.1,0,11.6,4.3,11.6,33.8c0,24.6,2.4,41.5-15,39.6v4.8c8.7,0,10.1-0.5,15.5-1c3.9,0,7.2,0,11.1,0c5.3,0.5,5.3,0.5,14.5,1v-5.3
	c-16.9,1-13.5-16.9-14-36.2c2.4,0,18.4,1,22.2,1c2.9,0,18.8-0.5,22.2-1v7.7c0,15,1.9,30.4-14,29v4.8c8.2,0,11.1-0.5,15.5-1
	c3.9-0.5,7.7-0.5,11.6,0c4.3,0.5,7.2,1,15,1v-4.8c-17.9,1.4-15-15-15-36.7c0-1,0-1.9,0-2.9c0-1.4,0-3.4,0-4.8c0-24.6,1-29,10.6-29
	h4.3V694c-9.7,0-13,0.5-17.9,1c-2.9,0-5.8,0-8.2,0c-5.3-0.5-6.8-1-15.9-1v4.8h2.9c12.1,0,11.1,7.2,11.6,30.4c-6.3,1-14,1.9-22.2,1.9
	c-9.2,0-16.4-1-22.2-1.9v-7.7H1247z M1329.1,698.9c15-3.4,15,6.8,15,22.2c0,7.2,0,14.5,0,21.7c0,16.9-0.5,32.8-15,29v4.8
	c15-0.5,17.4-1,26.6-1c1.9,0,4.3,0.5,6.3,0.5c2.9,0.5,4.3,0.5,7.7,0.5v-4.8c-10.1,1.9-11.6-8.7-11.6-12.6c-1-13-1.4-20.8-1.4-38.6
	c0-15.5,0-23.2,13-22.2v-4.8c-7.7,0-9.7,0.5-14,0.5c-3.4,0-5.8,0-9.2,0c-4.3,0-7.7-0.5-16.9-0.5v5.3H1329.1z M1425.3,769.4
	c-2.4,3.4-6.3,2.9-8.7,2.9c-4.3,0-8.2-4.8-15.9-15.9c-11.6-16.9-17.9-22.2-27-25.1c6.8-5.8,11.1-9.7,17.9-16.4
	c11.1-10.6,18.8-16.9,28.5-15.5v-4.8h-4.8c-4.3,0-8.2,0.5-12.6,0.5c-1.9,0.5-3.4,0.5-5.8,0c-2.4,0-4.8-0.5-10.1-0.5v4.8
	c3.4-0.5,6.3,1.4,6.3,3.4c0,4.8-13,16.4-29.5,31.9c10.1,8.2,15.5,15.9,21.7,23.7c5.8,7.7,14,20.8,24.1,20.8c4.8,0,11.1-1.9,15.5-4.8
	v-4.8H1425.3z"/>
<path fill-rule="evenodd" fill="#3B2A98" d="M181,751.1c-40.5,12-69.2,6.4-96.8-17.5c30.6-53.9,65.2-79.8,122-82
	C198.4,683.4,189.4,719.2,181,751.1L181,751.1z M200.2,751.2c-2.1,8.3-4.5,17.8-6.7,26c1.9,9.3,11.1,15.4,37.9,16.6
	c116.2-12.6,104.9-142.1-5.6-142.2c-7.9,30.8-16.3,63.2-24.3,93.9c21-6.5,29.8-21.9,37.4-50.5c3.3,2.3,6.8,4.4,10.3,6.5
	C236.4,730.4,222.4,743.9,200.2,751.2L200.2,751.2z M221.7,591.5c-4.4,17.4-9.6,37.1-14,54.5c-47.8,0.4-102.4,17.5-138.1,67.6
	c-26.7-67.2,43.7-151.1,121.2-146.9C215.9,570.4,221.9,577.1,221.7,591.5L221.7,591.5z M179.5,757c-2.9,10.7-3.1,11.2-6.1,21.9
	c-4.9,7.3-10.8,10.9-17.8,16.3c11.3,0,23.1-1.3,33.9,0c177,28.8,211.6-151.5,38.3-149c5.2-20.6,11.7-45.9,17.1-66.4
	c47.7,11.7,90.8,19.4,125-2.1c-7.6-6.4-15.1-13-22.7-19.4c-27,27-83,17.1-156.1,2.1c-70-10.7-145.8,42.9-152.9,115.4
	c-2.4,23.5,4.3,42.2,18.6,56.2c-93.1,149,98.3,233.3,198.3,120.3c-2.5-4.8-5.1-9.7-7.5-14.7c-67.4,118.7-234.9,47-170.1-91.1
	C106.4,762.6,140.9,767.9,179.5,757L179.5,757z"/>
</svg>
