<svg id="Layer_2" data-name="Layer 2" xmlns="http://www.w3.org/2000/svg" viewBox="0 0 282.65 50.83">
  <title>ВТБ Банк Москвы</title>
  <g>
    <path d="M65.41,36.1a3.77,3.77,0,0,1,2.75.83,4.13,4.13,0,0,1,1,2.89,4.68,4.68,0,0,1-.79,2.64,3.2,3.2,0,0,1-3,1.36H61.34V36.1h4.07ZM64.48,23.32a6.48,6.48,0,0,1,2.49.38,2.88,2.88,0,0,1,1.54,2.78,3.5,3.5,0,0,1-.79,2.3,3.13,3.13,0,0,1-2.63.91H61.24V23.32h3.23Zm-10.7-6.59V50.2H67.27c6.28,0,10.33-3.76,10.33-9.58a8.12,8.12,0,0,0-3-6.75,9.07,9.07,0,0,0-2.5-1.46A8.29,8.29,0,0,0,74,31.16a7.69,7.69,0,0,0,2.36-5.81,8,8,0,0,0-2.77-6.17c-2.27-2-4.88-2.45-8.35-2.45H53.78Z" fill="#00377c"/>
    <path d="M77.86,16.73v6.43h9.38v27h7.54v-27H103l2.17-6.43H77.86Z" fill="#00377c"/>
    <path d="M118.24,35.74a4.86,4.86,0,0,1,2.68.7,3.66,3.66,0,0,1,1.46,3.26,4.13,4.13,0,0,1-.82,2.79,3.67,3.67,0,0,1-3.09,1.25h-4v-8h3.78Zm-11.3-19V50.2h12.51a13.17,13.17,0,0,0,7.29-2c1.85-1.26,4.05-3.78,4.05-8.55a9.79,9.79,0,0,0-3.41-7.92c-1.36-1.1-3.89-2.4-8.21-2.4h-4.71v-6.2h12.66l2.19-6.44H106.94Z" fill="#00377c"/>
    <path d="M31,16.73H5.6a17,17,0,0,0,1.66,3.72H29.88a22,22,0,0,1,6.39,9.3H12.48a27.38,27.38,0,0,1-8.79-13q0.31-.94.68-1.86H31a29.29,29.29,0,0,0,4.14-3.72H6.23q0.58-1,1.23-1.86H36.68A38.82,38.82,0,0,0,39,5.58H10.68a27.26,27.26,0,0,1,2.14-1.86h27A35,35,0,0,0,41.14,0H11.76A30.63,30.63,0,0,0,0,16.73,30.72,30.72,0,0,0,11.74,33.46H41.06s-0.51-8.91-10-16.74" fill="#00377c"/>
    <path d="M282.09,48.06v-25h-3.35a5.63,5.63,0,0,1,.56,2.12V48.06a5.63,5.63,0,0,1-.56,2.11h3.91a5.62,5.62,0,0,1-.56-2.11" fill="#c31230"/>
    <path d="M151.19,31l0-12.15h3.56a2.94,2.94,0,0,1,2.25.64V16.73h-9.26a9.22,9.22,0,0,1,.48,2.54v28.6s-0.14,2.13-.55,2.47c0.38,0,1.15,0,1.87,0,0,0,3.45.36,5-.59s3.51-2.43,3.51-9.25S155,31,151.19,31m2.39,16.44a2.76,2.76,0,0,1-2.39.9V33.1c2.42,0,3.28,2.77,3.28,8.86,0,2.13-.21,4.39-0.89,5.49" fill="#c31230"/>
    <path d="M169,46.08V27.23c0-.14-0.12-4.58-4.21-4.58s-4.71,5.61-4.71,7.18,0.46,1.77.46,1.77h2.67a10.62,10.62,0,0,1-.31-3.26c0.08-2,.19-4,1.77-4,1.37,0,1.53,1.49,1.53,2.9v6.08a14.27,14.27,0,0,0-6.4,11.73c0,4.12,2.59,5.65,4.71,5.65a2.22,2.22,0,0,0,2.17-1.22,3.74,3.74,0,0,0,1.4,1.33l2-2.52A2.9,2.9,0,0,1,169,46.08m-4.14,2.75c-1,0-1.67-1.35-1.67-4.7,0-6.1,2.86-8.29,3-8.41v12a1.12,1.12,0,0,1-1.34,1.1" fill="#c31230"/>
    <path d="M181,47.86V23.08H177.6a5.63,5.63,0,0,1,.57,2.12V35.35H175V23.08h-3.35a5.64,5.64,0,0,1,.57,2.12V48.06a5.61,5.61,0,0,1-.57,2.11h3.92a5.62,5.62,0,0,1-.56-2.11V36.91h3.18V48.06a5.59,5.59,0,0,1-.57,2.11h3.92a5.59,5.59,0,0,1-.57-2.11v-0.2Z" fill="#c31230"/>
    <path d="M193.38,23.07h-3a5.89,5.89,0,0,1,0,2.07L187,33.88V23.08h-3.35a5.64,5.64,0,0,1,.57,2.12V48.06a5.61,5.61,0,0,1-.57,2.11h3.91a5.63,5.63,0,0,1-.56-2.11V38.64l1.4-3.4,2.88,12.82h0a5.48,5.48,0,0,1-.12,2.11h3.31l-4.23-19.39Z" fill="#c31230"/>
    <path d="M203.54,16.73c0.41,0.35.55,2.34,0.55,2.34V47.63a9.21,9.21,0,0,1-.48,2.54h3.93a9.25,9.25,0,0,1-.48-2.54V26.15l3.7,17.58,3.78-18V47.63a9.22,9.22,0,0,1-.48,2.54H218a9.19,9.19,0,0,1-.48-2.54V19.07s0.14-2,.55-2.34h-3.93l-3.37,13.61-3.37-13.61h-3.85Z" fill="#c31230"/>
    <path d="M225.37,22.64H225c-4,0-4.81,6.61-4.81,12.58s0,15.47,5,15.48,5-9.52,5-15.48-0.79-12.58-4.81-12.58m1.36,12.26c0,3.42,0,12.25-.66,13.55a1,1,0,0,1-1.8,0c-0.67-1.29-.66-10.13-0.66-13.55,0-3,0-8.11.38-9.52a1.21,1.21,0,0,1,1.1-1h0.16a1.21,1.21,0,0,1,1.1,1c0.39,1.42.38,6.52,0.38,9.52" fill="#c31230"/>
    <path d="M241.84,37.36h-3s0.26,0.68.47,1.46a34.94,34.94,0,0,1,.05,5.8c-0.1,1.42-.12,4.41-1.79,4.41a1.05,1.05,0,0,1-.9-0.59C236,47.16,236,38.33,236,34.9c0-3,0-8.11.38-9.52a1.21,1.21,0,0,1,1.1-1c2,0,1.71,5.13,1.61,5.76a13.75,13.75,0,0,1-.42,1.57h2.83a1.31,1.31,0,0,0,.31-0.73c0.32-2-.41-8.29-4.44-8.29s-4.81,6.61-4.81,12.58-0.05,15.49,5,15.49,4.66-11.31,4.66-12.25a1.05,1.05,0,0,0-.42-1.1" fill="#c31230"/>
    <path d="M271.25,32.39V23.08H267.9a5.63,5.63,0,0,1,.57,2.12V48.05a5.61,5.61,0,0,1-.57,2.12h2.88a7.42,7.42,0,0,0,3.54-.59c1.43-.87,3.22-2.23,3.22-8.47s-2.82-8.72-6.3-8.72m2.19,15.05a2.55,2.55,0,0,1-2.19.83v-14c2.21,0,3,2.54,3,8.11,0,1.95-.19,4-0.82,5" fill="#c31230"/>
    <path d="M263,34a5.51,5.51,0,0,0,2.38-4.44c0-.18,0-0.38,0-0.62,0-1.57.08-6.3-4.08-6.3s-4.21,4.59-4.21,4.59V48.06a5.59,5.59,0,0,1-.57,2.11h3.35a6.64,6.64,0,0,0,3.06-.59c1.42-.87,3.22-2.23,3.22-8.48,0-4.22-1.28-6.22-3.18-7.08m-3.09-6.77c0-1.41.16-2.9,1.54-2.9,1.58,0,1.48,1.36,1.56,3.33a10.66,10.66,0,0,1-.32,3.25h0a3,3,0,0,1-2.79,2.52V27.24Zm2.17,20.2a2.53,2.53,0,0,1-2.17.82V35.37c2.21,0,3,1.46,3,7,0,2-.19,4-0.82,5" fill="#c31230"/>
    <path d="M251.17,23.08a5.89,5.89,0,0,1,0,2.07h0l-3.4,8.75V23.08h-3.35a5.66,5.66,0,0,1,.56,2.12V48.06a5.63,5.63,0,0,1-.56,2.11h3.91a5.64,5.64,0,0,1-.56-2.11V38.64l1.4-3.4L252,48.06a5.49,5.49,0,0,1-.12,2.11h3.31L251,30.77l3.16-7.7h-3Z" fill="#c31230"/>
  </g>
</svg>
